<?xml version="1.0" encoding="UTF-8"?>
<svg width="240px" height="64px" viewBox="0 0 240 64" version="1.1" xmlns="http://www.w3.org/2000/svg" xmlns:xlink="http://www.w3.org/1999/xlink">
    <title>Group 22</title>
    <defs>
        <path d="M0,0 L0,2.68031836 L23.6983084,2.68031836 C27.5867323,2.68031836 31.4075134,3.58368492 34.7480997,5.29299389 L34.7480997,5.29299389 C39.7285052,7.8410278 45.050357,13.6446904 45.050357,22.2918915 L45.050357,22.2918915 C45.050357,27.3551768 43.7944628,31.600284 41.3175346,34.909242 L41.3175346,34.909242 C39.4343859,37.4254169 36.8549546,39.4052971 33.6515009,40.7941684 L33.6515009,40.7941684 C30.7948033,42.032517 27.7003169,42.6604641 24.4546152,42.6604641 L24.4546152,42.6604641 L11.5911649,42.6604641 L11.5911649,60.7125584 C8.52368942,60.3759602 6.13102624,58.8488021 4.46627381,56.1606344 L4.46627381,56.1606344 C3.29787664,54.2742536 2.68031836,52.0466574 2.68031836,49.7190976 L2.68031836,49.7190976 L2.68031836,14.4704871 L24.446535,14.4704871 C26.0357953,14.4704871 27.5377894,14.7779965 28.9107311,15.3840116 L28.9107311,15.3840116 C31.8761651,16.6932351 33.3795444,18.9236017 33.3795444,22.0130091 L33.3795444,22.0130091 C33.3795444,25.6698776 31.9105637,28.2601594 29.0132342,29.7122871 L29.0132342,29.7122871 C27.7619573,30.3395416 26.3160629,30.6708299 24.8318452,30.6708299 L24.8318452,30.6708299 L11.6170215,30.6708299 L11.6170215,33.3511483 L24.8318452,33.3511483 C26.7309235,33.3511483 28.5919094,32.9217432 30.2139522,32.1086441 L30.2139522,32.1086441 C32.8811114,30.7721787 36.0600936,27.9355662 36.0600936,22.0130091 L36.0600936,22.0130091 C36.0600936,17.8842569 33.9054501,14.6593329 29.9932473,12.9320166 L29.9932473,12.9320166 C28.2772433,12.1743246 26.4111784,11.7901687 24.446535,11.7901687 L24.446535,11.7901687 L0,11.7901687 L0,49.7190976 C0,52.545783 0.756306886,55.2611925 2.18742605,57.5721302 L2.18742605,57.5721302 C3.85217848,60.2600671 7.0674062,63.4644442 12.9313241,63.4644442 L12.9313241,63.4644442 L14.2714832,63.4644442 L14.2714832,45.3407825 L24.4546152,45.3407825 C28.0694666,45.3407825 31.5224832,44.6384975 34.7173949,43.2533201 L34.7173949,43.2533201 C38.3544092,41.6767573 41.2969878,39.4099144 43.4636362,36.5155861 L43.4636362,36.5155861 C46.2951698,32.7324357 47.7309062,27.9468784 47.7309062,22.2918915 L47.7309062,22.2918915 C47.7309062,12.4358923 41.6550562,5.81566751 35.9691336,2.90679487 L35.9691336,2.90679487 C32.2522408,1.00494624 28.0092114,0 23.6983084,0 L23.6983084,0 L0,0 Z" id="path-1"></path>
        <linearGradient x1="13.9410333%" y1="91.1912806%" x2="67.2417982%" y2="-8.02712176%" id="linearGradient-3">
            <stop stop-color="#7E00CA" offset="0%"></stop>
            <stop stop-color="#14A0F6" offset="100%"></stop>
        </linearGradient>
        <path d="M0,0 L0,20.6299094 L2.56696467,20.6299094 L2.56696467,12.4335836 L8.28913271,12.4335836 C12.402648,12.4335836 14.7530633,9.58819829 14.7530633,6.21690725 L14.7530633,6.21690725 C14.7530633,2.8456162 12.4335836,0 8.28913271,0 L8.28913271,0 L0,0 Z M2.56696467,2.28900573 L7.97954555,2.28900573 C10.4229986,2.28900573 12.0932917,3.89742761 12.0932917,6.21690725 L12.0932917,6.21690725 C12.0932917,8.53684861 10.4229986,10.1448088 7.97954555,10.1448088 L7.97954555,10.1448088 L2.56696467,10.1448088 L2.56696467,2.28900573 Z" id="path-4"></path>
        <linearGradient x1="49.1662267%" y1="8.92145893%" x2="50.5219917%" y2="99.9213269%" id="linearGradient-6">
            <stop stop-color="#4852E2" offset="0%"></stop>
            <stop stop-color="#7E00CA" offset="100%"></stop>
        </linearGradient>
        <path d="M0,0 L0,20.6299094 L2.56696467,20.6299094 L2.56696467,12.4335836 L6.71164646,12.4335836 L11.9386136,20.6299094 L14.9696127,20.6299094 L9.40235365,12.2170342 C12.2170342,11.9695492 14.7839989,9.92849021 14.7839989,6.21690725 L14.7839989,6.21690725 C14.7839989,2.41274825 12.0621252,0 8.28890184,0 L8.28890184,0 L0,0 Z M2.56696467,2.28900573 L7.97954555,2.28900573 C10.4229986,2.28900573 12.1242273,3.86603025 12.1242273,6.21690725 L12.1242273,6.21690725 C12.1242273,8.53684861 10.4229986,10.1759753 7.97954555,10.1759753 L7.97954555,10.1759753 L2.56696467,10.1759753 L2.56696467,2.28900573 Z" id="path-7"></path>
        <linearGradient x1="48.7823168%" y1="5.90074463%" x2="50.1579821%" y2="96.9006126%" id="linearGradient-9">
            <stop stop-color="#4852E2" offset="0%"></stop>
            <stop stop-color="#7E00CA" offset="100%"></stop>
        </linearGradient>
        <path d="M0,10.6704836 C0,16.7636483 4.14445092,21.3411981 10.2376156,21.3411981 L10.2376156,21.3411981 C16.3305495,21.3411981 20.5061669,16.7636483 20.5061669,10.6704836 L20.5061669,10.6704836 C20.5061669,4.57754974 16.3305495,0 10.2376156,0 L10.2376156,0 C4.14445092,0 0,4.57754974 0,10.6704836 M2.65977156,10.6704836 C2.65977156,5.84544883 5.59819465,2.28877487 10.2376156,2.28877487 L10.2376156,2.28877487 C14.846101,2.28877487 17.8461645,5.84544883 17.8461645,10.6704836 L17.8461645,10.6704836 C17.8461645,15.4645827 14.846101,19.0521923 10.2376156,19.0521923 L10.2376156,19.0521923 C5.59819465,19.0521923 2.65977156,15.4645827 2.65977156,10.6704836" id="path-10"></path>
        <linearGradient x1="49.0810042%" y1="4.10869744%" x2="50.8419408%" y2="92.0755974%" id="linearGradient-12">
            <stop stop-color="#4852E2" offset="0%"></stop>
            <stop stop-color="#7E00CA" offset="100%"></stop>
        </linearGradient>
        <polygon id="path-13" points="15.8046438 0 9.71147908 8.22726145 3.58784045 0 0.464034445 0 8.04141681 10.0520019 0 20.6299094 3.12403687 20.6299094 9.71147908 11.8460375 16.2996139 20.6299094 19.4236508 20.6299094 11.3817722 10.0212971 18.9596163 0"></polygon>
        <linearGradient x1="48.024859%" y1="-0.681264548%" x2="49.8098378%" y2="90.3186034%" id="linearGradient-15">
            <stop stop-color="#4852E2" offset="0%"></stop>
            <stop stop-color="#7E00CA" offset="100%"></stop>
        </linearGradient>
        <path d="M14.2580932,0 L14.2580932,12.5573261 C14.2580932,16.3305495 12.2165725,18.7121313 8.4124135,18.7121313 L8.4124135,18.7121313 C4.60802364,18.7121313 2.5979003,16.3305495 2.5979003,12.5573261 L2.5979003,12.5573261 L2.5979003,0 L0,0 L0,12.6191974 C0,17.6914864 2.84515448,21.001137 8.4124135,21.001137 L8.4124135,21.001137 C14.010839,21.001137 16.8562244,17.7226528 16.8562244,12.5882618 L16.8562244,12.5882618 L16.8562244,0 L14.2580932,0 Z" id="path-16"></path>
        <linearGradient x1="49.4258409%" y1="-3.93893864%" x2="50.9206011%" y2="85.452366%" id="linearGradient-18">
            <stop stop-color="#4852E2" offset="0%"></stop>
            <stop stop-color="#7E00CA" offset="100%"></stop>
        </linearGradient>
        <path d="M0.64941736,5.7528728 C0.64941736,13.1137058 12.8666824,10.1445779 12.8666824,15.4645827 L12.8666824,15.4645827 C12.8666824,17.0727738 11.6908977,19.0521923 8.01071204,19.0521923 L8.01071204,19.0521923 C5.10345544,19.0521923 2.87632097,17.6296151 1.54655062,16.0830645 L1.54655062,16.0830645 L0,18.0627139 C1.70076704,19.9802612 4.36100033,21.3411981 7.91790515,21.3411981 L7.91790515,21.3411981 C13.4851642,21.3411981 15.526454,18.2480968 15.526454,15.2787381 L15.526454,15.2787381 C15.526454,7.57761322 3.30918892,10.2376156 3.30918892,5.59819465 L3.30918892,5.59819465 C3.30918892,3.64948085 5.10345544,2.31947964 7.54667759,2.31947964 L7.54667759,2.31947964 C9.80428597,2.31947964 11.9695492,3.06170388 13.5158689,4.79409914 L13.5158689,4.79409914 L15.0624196,2.90748746 C13.330486,1.08251617 10.887033,0 7.763227,0 L7.763227,0 C3.68041648,0 0.64941736,2.35064613 0.64941736,5.7528728" id="path-19"></path>
        <linearGradient x1="48.7376471%" y1="-5.33956675%" x2="50.0709583%" y2="82.6273332%" id="linearGradient-21">
            <stop stop-color="#4852E2" offset="0%"></stop>
            <stop stop-color="#7E00CA" offset="100%"></stop>
        </linearGradient>
    </defs>
    <g id="Page-1" stroke="none" stroke-width="1" fill="none" fill-rule="evenodd">
        <g id="Group-22">
            <g id="Group-3">
                <mask id="mask-2" fill="white">
                    <use xlink:href="#path-1"></use>
                </mask>
                <g id="Clip-2"></g>
                <path d="M0,0 L0,2.68031836 L23.6983084,2.68031836 C27.5867323,2.68031836 31.4075134,3.58368492 34.7480997,5.29299389 L34.7480997,5.29299389 C39.7285052,7.8410278 45.050357,13.6446904 45.050357,22.2918915 L45.050357,22.2918915 C45.050357,27.3551768 43.7944628,31.600284 41.3175346,34.909242 L41.3175346,34.909242 C39.4343859,37.4254169 36.8549546,39.4052971 33.6515009,40.7941684 L33.6515009,40.7941684 C30.7948033,42.032517 27.7003169,42.6604641 24.4546152,42.6604641 L24.4546152,42.6604641 L11.5911649,42.6604641 L11.5911649,60.7125584 C8.52368942,60.3759602 6.13102624,58.8488021 4.46627381,56.1606344 L4.46627381,56.1606344 C3.29787664,54.2742536 2.68031836,52.0466574 2.68031836,49.7190976 L2.68031836,49.7190976 L2.68031836,14.4704871 L24.446535,14.4704871 C26.0357953,14.4704871 27.5377894,14.7779965 28.9107311,15.3840116 L28.9107311,15.3840116 C31.8761651,16.6932351 33.3795444,18.9236017 33.3795444,22.0130091 L33.3795444,22.0130091 C33.3795444,25.6698776 31.9105637,28.2601594 29.0132342,29.7122871 L29.0132342,29.7122871 C27.7619573,30.3395416 26.3160629,30.6708299 24.8318452,30.6708299 L24.8318452,30.6708299 L11.6170215,30.6708299 L11.6170215,33.3511483 L24.8318452,33.3511483 C26.7309235,33.3511483 28.5919094,32.9217432 30.2139522,32.1086441 L30.2139522,32.1086441 C32.8811114,30.7721787 36.0600936,27.9355662 36.0600936,22.0130091 L36.0600936,22.0130091 C36.0600936,17.8842569 33.9054501,14.6593329 29.9932473,12.9320166 L29.9932473,12.9320166 C28.2772433,12.1743246 26.4111784,11.7901687 24.446535,11.7901687 L24.446535,11.7901687 L0,11.7901687 L0,49.7190976 C0,52.545783 0.756306886,55.2611925 2.18742605,57.5721302 L2.18742605,57.5721302 C3.85217848,60.2600671 7.0674062,63.4644442 12.9313241,63.4644442 L12.9313241,63.4644442 L14.2714832,63.4644442 L14.2714832,45.3407825 L24.4546152,45.3407825 C28.0694666,45.3407825 31.5224832,44.6384975 34.7173949,43.2533201 L34.7173949,43.2533201 C38.3544092,41.6767573 41.2969878,39.4099144 43.4636362,36.5155861 L43.4636362,36.5155861 C46.2951698,32.7324357 47.7309062,27.9468784 47.7309062,22.2918915 L47.7309062,22.2918915 C47.7309062,12.4358923 41.6550562,5.81566751 35.9691336,2.90679487 L35.9691336,2.90679487 C32.2522408,1.00494624 28.0092114,0 23.6983084,0 L23.6983084,0 L0,0 Z" id="Fill-1" fill="url(#linearGradient-3)" mask="url(#mask-2)"></path>
            </g>
            <g id="Group-6" transform="translate(65.366755, 21.401684)">
                <mask id="mask-5" fill="white">
                    <use xlink:href="#path-4"></use>
                </mask>
                <g id="Clip-5"></g>
                <path d="M0,0 L0,20.6299094 L2.56696467,20.6299094 L2.56696467,12.4335836 L8.28913271,12.4335836 C12.402648,12.4335836 14.7530633,9.58819829 14.7530633,6.21690725 L14.7530633,6.21690725 C14.7530633,2.8456162 12.4335836,0 8.28913271,0 L8.28913271,0 L0,0 Z M2.56696467,2.28900573 L7.97954555,2.28900573 C10.4229986,2.28900573 12.0932917,3.89742761 12.0932917,6.21690725 L12.0932917,6.21690725 C12.0932917,8.53684861 10.4229986,10.1448088 7.97954555,10.1448088 L7.97954555,10.1448088 L2.56696467,10.1448088 L2.56696467,2.28900573 Z" id="Fill-4" fill="url(#linearGradient-6)" mask="url(#mask-5)"></path>
            </g>
            <g id="Group-9" transform="translate(95.276429, 21.401684)">
                <mask id="mask-8" fill="white">
                    <use xlink:href="#path-7"></use>
                </mask>
                <g id="Clip-8"></g>
                <path d="M0,0 L0,20.6299094 L2.56696467,20.6299094 L2.56696467,12.4335836 L6.71164646,12.4335836 L11.9386136,20.6299094 L14.9696127,20.6299094 L9.40235365,12.2170342 C12.2170342,11.9695492 14.7839989,9.92849021 14.7839989,6.21690725 L14.7839989,6.21690725 C14.7839989,2.41274825 12.0621252,0 8.28890184,0 L8.28890184,0 L0,0 Z M2.56696467,2.28900573 L7.97954555,2.28900573 C10.4229986,2.28900573 12.1242273,3.86603025 12.1242273,6.21690725 L12.1242273,6.21690725 C12.1242273,8.53684861 10.4229986,10.1759753 7.97954555,10.1759753 L7.97954555,10.1759753 L2.56696467,10.1759753 L2.56696467,2.28900573 Z" id="Fill-7" fill="url(#linearGradient-9)" mask="url(#mask-8)"></path>
            </g>
            <g id="Group-12" transform="translate(125.031657, 21.061623)">
                <mask id="mask-11" fill="white">
                    <use xlink:href="#path-10"></use>
                </mask>
                <g id="Clip-11"></g>
                <path d="M0,10.6704836 C0,16.7636483 4.14445092,21.3411981 10.2376156,21.3411981 L10.2376156,21.3411981 C16.3305495,21.3411981 20.5061669,16.7636483 20.5061669,10.6704836 L20.5061669,10.6704836 C20.5061669,4.57754974 16.3305495,0 10.2376156,0 L10.2376156,0 C4.14445092,0 0,4.57754974 0,10.6704836 M2.65977156,10.6704836 C2.65977156,5.84544883 5.59819465,2.28877487 10.2376156,2.28877487 L10.2376156,2.28877487 C14.846101,2.28877487 17.8461645,5.84544883 17.8461645,10.6704836 L17.8461645,10.6704836 C17.8461645,15.4645827 14.846101,19.0521923 10.2376156,19.0521923 L10.2376156,19.0521923 C5.59819465,19.0521923 2.65977156,15.4645827 2.65977156,10.6704836" id="Fill-10" fill="url(#linearGradient-12)" mask="url(#mask-11)"></path>
            </g>
            <g id="Group-15" transform="translate(158.313316, 21.401684)">
                <mask id="mask-14" fill="white">
                    <use xlink:href="#path-13"></use>
                </mask>
                <g id="Clip-14"></g>
                <polygon id="Fill-13" fill="url(#linearGradient-15)" mask="url(#mask-14)" points="15.8046438 0 9.71147908 8.22726145 3.58784045 0 0.464034445 0 8.04141681 10.0520019 0 20.6299094 3.12403687 20.6299094 9.71147908 11.8460375 16.2996139 20.6299094 19.4236508 20.6299094 11.3817722 10.0212971 18.9596163 0"></polygon>
            </g>
            <g id="Group-18" transform="translate(192.275096, 21.401684)">
                <mask id="mask-17" fill="white">
                    <use xlink:href="#path-16"></use>
                </mask>
                <g id="Clip-17"></g>
                <path d="M14.2580932,0 L14.2580932,12.5573261 C14.2580932,16.3305495 12.2165725,18.7121313 8.4124135,18.7121313 L8.4124135,18.7121313 C4.60802364,18.7121313 2.5979003,16.3305495 2.5979003,12.5573261 L2.5979003,12.5573261 L2.5979003,0 L0,0 L0,12.6191974 C0,17.6914864 2.84515448,21.001137 8.4124135,21.001137 L8.4124135,21.001137 C14.010839,21.001137 16.8562244,17.7226528 16.8562244,12.5882618 L16.8562244,12.5882618 L16.8562244,0 L14.2580932,0 Z" id="Fill-16" fill="url(#linearGradient-18)" mask="url(#mask-17)"></path>
            </g>
            <g id="Group-21" transform="translate(224.473546, 21.061623)">
                <mask id="mask-20" fill="white">
                    <use xlink:href="#path-19"></use>
                </mask>
                <g id="Clip-20"></g>
                <path d="M0.64941736,5.7528728 C0.64941736,13.1137058 12.8666824,10.1445779 12.8666824,15.4645827 L12.8666824,15.4645827 C12.8666824,17.0727738 11.6908977,19.0521923 8.01071204,19.0521923 L8.01071204,19.0521923 C5.10345544,19.0521923 2.87632097,17.6296151 1.54655062,16.0830645 L1.54655062,16.0830645 L0,18.0627139 C1.70076704,19.9802612 4.36100033,21.3411981 7.91790515,21.3411981 L7.91790515,21.3411981 C13.4851642,21.3411981 15.526454,18.2480968 15.526454,15.2787381 L15.526454,15.2787381 C15.526454,7.57761322 3.30918892,10.2376156 3.30918892,5.59819465 L3.30918892,5.59819465 C3.30918892,3.64948085 5.10345544,2.31947964 7.54667759,2.31947964 L7.54667759,2.31947964 C9.80428597,2.31947964 11.9695492,3.06170388 13.5158689,4.79409914 L13.5158689,4.79409914 L15.0624196,2.90748746 C13.330486,1.08251617 10.887033,0 7.763227,0 L7.763227,0 C3.68041648,0 0.64941736,2.35064613 0.64941736,5.7528728" id="Fill-19" fill="url(#linearGradient-21)" mask="url(#mask-20)"></path>
            </g>
        </g>
    </g>
</svg>